<svg xmlns="http://www.w3.org/2000/svg" viewBox="0 0 512 512">
  <defs>
    <linearGradient id="bg" x1="0" y1="0" x2="1" y2="1">
      <stop offset="0%" stop-color="#7B3FB8"/>
      <stop offset="55%" stop-color="#5F259F"/>
      <stop offset="100%" stop-color="#3D1668"/>
    </linearGradient>
    <linearGradient id="paper" x1="0" y1="0" x2="0" y2="1">
      <stop offset="0%" stop-color="#ffffff"/>
      <stop offset="100%" stop-color="#F3EBFA"/>
    </linearGradient>
    <linearGradient id="calc" x1="0" y1="0" x2="0" y2="1">
      <stop offset="0%" stop-color="#3D1668"/>
      <stop offset="100%" stop-color="#2A0E4A"/>
    </linearGradient>
    <linearGradient id="screen" x1="0" y1="0" x2="0" y2="1">
      <stop offset="0%" stop-color="#E8D5F5"/>
      <stop offset="100%" stop-color="#C9A8E5"/>
    </linearGradient>
    <filter id="shadow" x="-20%" y="-20%" width="140%" height="140%">
      <feDropShadow dx="0" dy="6" stdDeviation="8" flood-color="#000000" flood-opacity="0.28"/>
    </filter>
    <filter id="softShadow" x="-20%" y="-20%" width="140%" height="140%">
      <feDropShadow dx="0" dy="3" stdDeviation="4" flood-color="#000000" flood-opacity="0.18"/>
    </filter>
  </defs>
  <rect x="0" y="0" width="512" height="512" rx="108" ry="108" fill="url(#bg)"/>
  <ellipse cx="380" cy="100" rx="220" ry="180" fill="#FFFFFF" fill-opacity="0.12"/>
  <g filter="url(#shadow)">
    <path d="M 96 76 L 332 76 Q 354 76 354 98 L 354 376 L 334 356 L 312 376 L 290 356 L 268 376 L 246 356 L 224 376 L 202 356 L 180 376 L 158 356 L 136 376 L 116 356 L 96 376 Z" fill="url(#paper)"/>
    <rect x="96" y="76" width="258" height="42" fill="#5F259F"/>
    <text x="225" y="106" font-family="Arial, sans-serif" font-size="22" font-weight="bold" fill="#ffffff" text-anchor="middle">ใบบริการ</text>
    <rect x="120" y="142" width="200" height="6" rx="3" fill="#D9C8E8"/>
    <rect x="120" y="162" width="170" height="6" rx="3" fill="#D9C8E8"/>
    <rect x="120" y="182" width="210" height="6" rx="3" fill="#D9C8E8"/>
    <rect x="120" y="202" width="150" height="6" rx="3" fill="#D9C8E8"/>
    <line x1="120" y1="232" x2="334" y2="232" stroke="#5F259F" stroke-width="3" stroke-dasharray="6,4"/>
    <text x="120" y="266" font-family="Arial, sans-serif" font-size="22" font-weight="bold" fill="#3D1668">TOTAL</text>
    <text x="334" y="266" font-family="Arial, sans-serif" font-size="22" font-weight="bold" fill="#3D1668" text-anchor="end">฿</text>
  </g>
  <g filter="url(#shadow)">
    <rect x="278" y="270" width="178" height="200" rx="24" fill="url(#calc)" stroke="#ffffff" stroke-width="4"/>
    <rect x="294" y="288" width="146" height="42" rx="6" fill="url(#screen)"/>
    <text x="432" y="320" font-family="Courier" font-size="22" font-weight="bold" fill="#3D1668" text-anchor="end">123</text>
    <circle cx="312" cy="358" r="14" fill="#ffffff"/>
    <circle cx="356" cy="358" r="14" fill="#ffffff"/>
    <circle cx="400" cy="358" r="14" fill="#ffffff"/>
    <circle cx="312" cy="400" r="14" fill="#ffffff"/>
    <circle cx="356" cy="400" r="14" fill="#ffffff"/>
    <circle cx="400" cy="400" r="14" fill="#ffffff"/>
    <circle cx="312" cy="442" r="14" fill="#ffffff"/>
    <circle cx="356" cy="442" r="14" fill="#ffffff"/>
    <circle cx="424" cy="421" r="24" fill="#FE5000" filter="url(#softShadow)"/>
    <text x="424" y="431" font-family="Arial, sans-serif" font-size="28" font-weight="bold" fill="#ffffff" text-anchor="middle">=</text>
  </g>
  <g transform="translate(388,92)" filter="url(#shadow)">
    <circle r="44" fill="#FE5000" stroke="#ffffff" stroke-width="5"/>
    <path d="M -8 -22 L 12 -2 L -2 -2 L 8 22 L -12 0 L 2 0 Z" fill="#ffffff"/>
  </g>
</svg>
